<svg viewBox="0 0 24 24" xmlns="http://www.w3.org/2000/svg">
    <path
        d="M12 0C9.62663 0 7.30655 0.703788 5.33316 2.02236C3.35977 3.34094 1.8217 5.21508 0.913451 7.4078C0.00519941 9.60051 -0.232441 12.0133 0.230582 14.3411C0.693605 16.6689 1.83649 18.807 3.51472 20.4853C5.19295 22.1635 7.33115 23.3064 9.65892 23.7694C11.9867 24.2324 14.3995 23.9948 16.5922 23.0866C18.7849 22.1783 20.6591 20.6402 21.9776 18.6668C23.2962 16.6935 24 14.3734 24 12C24 10.4241 23.6896 8.8637 23.0866 7.4078C22.4835 5.95189 21.5996 4.62902 20.4853 3.51472C19.371 2.40042 18.0481 1.5165 16.5922 0.913446C15.1363 0.310389 13.5759 0 12 0ZM12 21.6C10.1013 21.6 8.24524 21.037 6.66653 19.9821C5.08782 18.9272 3.85736 17.4279 3.13076 15.6738C2.40416 13.9196 2.21405 11.9893 2.58447 10.1271C2.95488 8.26491 3.8692 6.55436 5.21178 5.21177C6.55436 3.86919 8.26492 2.95488 10.1271 2.58446C11.9894 2.21404 13.9196 2.40416 15.6738 3.13076C17.4279 3.85736 18.9272 5.08781 19.9821 6.66652C21.037 8.24524 21.6 10.1013 21.6 12C21.6 14.5461 20.5886 16.9879 18.7882 18.7882C16.9879 20.5886 14.5461 21.6 12 21.6Z"
    />
    <path d="M13.2008 16.7998H10.8008V19.1998H13.2008V16.7998Z" />
    <path
        d="M12.0008 4.79981C10.8869 4.79981 9.81859 5.24231 9.03093 6.02996C8.24328 6.81761 7.80078 7.8859 7.80078 8.99981H10.2008C10.2008 8.6438 10.3063 8.29579 10.5041 7.99978C10.7019 7.70377 10.983 7.47306 11.312 7.33682C11.6409 7.20058 12.0028 7.16494 12.3519 7.23439C12.7011 7.30385 13.0218 7.47528 13.2736 7.72701C13.5253 7.97875 13.6967 8.29948 13.7662 8.64864C13.8356 8.99781 13.8 9.35973 13.6638 9.68864C13.5275 10.0175 13.2968 10.2987 13.0008 10.4965C12.7048 10.6942 12.3568 10.7998 12.0008 10.7998C11.6825 10.7998 11.3773 10.9262 11.1523 11.1513C10.9272 11.3763 10.8008 11.6815 10.8008 11.9998V14.3998H13.2008V13.0258C14.1684 12.7383 15.0002 12.1118 15.5437 11.2611C16.0872 10.4104 16.3061 9.39244 16.1604 8.39353C16.0147 7.39461 15.5141 6.4816 14.7502 5.82164C13.9863 5.16168 13.0103 4.79893 12.0008 4.79981Z"
    />
</svg>
    